<svg width="14" height="14" viewBox="0 0 14 14" fill="none" xmlns="http://www.w3.org/2000/svg">
<g id="Frame">
<path id="Vector (Stroke)" fill-rule="evenodd" clip-rule="evenodd" d="M2.42226 0.599609C2.42226 0.357985 2.61814 0.162109 2.85976 0.162109H11.3193C11.4354 0.162109 11.5466 0.208203 11.6287 0.29025L13.6704 2.33192C13.7524 2.41396 13.7985 2.52524 13.7985 2.64128V13.4329C13.7985 13.6746 13.6026 13.8704 13.361 13.8704H2.27767C2.03604 13.8704 1.84017 13.6746 1.84017 13.4329C1.84017 13.1913 2.03604 12.9954 2.27767 12.9954H12.9235V3.95378H10.4443C10.2027 3.95378 10.0068 3.7579 10.0068 3.51628V1.03711H3.29726V5.26628C3.29726 5.5079 3.10139 5.70378 2.85976 5.70378C2.61814 5.70378 2.42226 5.5079 2.42226 5.26628V0.599609ZM10.8818 1.03711V3.07878H12.9235V2.82249L11.1381 1.03711H10.8818ZM1.25684 7.01628C1.25684 6.77465 1.45271 6.57878 1.69434 6.57878H2.56934C3.24909 6.57878 3.72336 6.79636 4.00986 7.1688C4.27945 7.51926 4.31934 7.92809 4.31934 8.18294C4.31934 8.43779 4.27945 8.84662 4.00986 9.19709C3.72336 9.56953 3.24909 9.78711 2.56934 9.78711H2.27767V10.5163C2.27767 10.7579 2.08179 10.9538 1.84017 10.9538H1.69434C1.45271 10.9538 1.25684 10.7579 1.25684 10.5163V7.01628ZM2.13184 8.91211H2.56934C3.05625 8.91211 3.23822 8.76511 3.31631 8.66359C3.41131 8.54009 3.44434 8.36559 3.44434 8.18294C3.44434 8.00029 3.41131 7.82579 3.31631 7.70229C3.23822 7.60078 3.05625 7.45378 2.56934 7.45378H2.13184V8.91211ZM5.0485 7.01628C5.0485 6.77465 5.24438 6.57878 5.486 6.57878H6.48074C6.86929 6.57878 7.34191 6.66383 7.71018 7.03716C8.07544 7.40743 8.25684 7.97914 8.25684 8.76628C8.25684 9.55342 8.07544 10.1251 7.71018 10.4954C7.34191 10.8687 6.86929 10.9538 6.48074 10.9538H5.48616C5.24453 10.9538 5.0485 10.7579 5.0485 10.5163V7.01628ZM5.9235 7.45378V10.0788H6.48074C6.75535 10.0788 6.95203 10.018 7.08726 9.88091C7.22551 9.74076 7.38184 9.43747 7.38184 8.76628C7.38184 8.09508 7.22551 7.79179 7.08726 7.65165C6.95203 7.51455 6.75535 7.45378 6.48074 7.45378H5.9235ZM9.13184 7.01628C9.13184 6.77465 9.32771 6.57878 9.56934 6.57878H11.9027C12.1443 6.57878 12.3402 6.77465 12.3402 7.01628C12.3402 7.2579 12.1443 7.45378 11.9027 7.45378H10.0068V8.62044H11.3193C11.561 8.62044 11.7568 8.81632 11.7568 9.05794C11.7568 9.29957 11.561 9.49544 11.3193 9.49544H10.0068V11.0996C10.0068 11.3412 9.81096 11.5371 9.56934 11.5371C9.32771 11.5371 9.13184 11.3412 9.13184 11.0996V7.01628Z" fill="#565656"/>
</g>
</svg>
