<svg width="473" height="133" viewBox="0 0 473 133" fill="none" xmlns="http://www.w3.org/2000/svg">
<g clip-path="url(#clip0_2326_119337)">
<path d="M90.3899 40H69.3899V112H90.3899V40Z" fill="#FFC600"/>
<path d="M79.3899 24C86.0173 24 91.3899 18.6274 91.3899 12C91.3899 5.37258 86.0173 0 79.3899 0C72.7625 0 67.3899 5.37258 67.3899 12C67.3899 18.6274 72.7625 24 79.3899 24Z" fill="#FF6200"/>
<path d="M471.39 40H450.39V112H471.39V40Z" fill="#00BC70"/>
<path d="M460.39 24C467.018 24 472.39 18.6274 472.39 12C472.39 5.37258 467.018 0 460.39 0C453.763 0 448.39 5.37258 448.39 12C448.39 18.6274 453.763 24 460.39 24Z" fill="#FFC600"/>
<path d="M110.39 47C114.32 43.43 118.9 41.66 122.39 40.76V40H101.39V64.94C101.77 61.49 103.34 53.41 110.39 47Z" fill="#00B4E7"/>
<path d="M110.39 47C103.34 53.41 101.77 61.49 101.39 64.94V113H122.39V41H121.53C118.17 41.96 114.01 43.71 110.39 47Z" fill="#7C3271"/>
<path d="M101.27 66.2699C101.31 81.5099 101.35 96.7599 101.38 112V64.9399C101.32 65.5199 101.28 65.9799 101.27 66.2699Z" fill="#F60069"/>
<path d="M157.39 46.9999C151.4 41.6999 144.93 40.2699 142.11 39.7999C137.39 38.9999 132.4 39.0999 127.75 39.7999C127.15 39.8899 125.1 40.0599 122.39 40.7599V67.9999C124.3 63.4299 128.58 60.3199 133.39 59.9999C138.78 59.6499 143.92 62.8499 146.1 67.9999V111.89H167.24V64.9199C166.81 62.3199 165.05 53.7799 157.4 47.0099L157.39 46.9999Z" fill="#F60069"/>
<path d="M362.89 40C342.73 40 326.39 56.34 326.39 76.5C326.39 96.66 342.73 113 362.89 113C383.05 113 399.39 96.66 399.39 76.5C399.39 56.34 383.05 40 362.89 40ZM362.39 92C353.55 92 346.39 84.84 346.39 76C346.39 67.16 353.55 60 362.39 60C371.23 60 378.39 67.16 378.39 76C378.39 84.84 371.23 92 362.39 92Z" fill="#FF6200"/>
<path d="M250.39 75.5C250.39 55.34 234.05 39 213.89 39C193.73 39 177.39 55.34 177.39 75.5C177.39 95.66 193.73 112 213.89 112C219.83 112 225.43 110.58 230.39 108.07V112H250.39V77.73C250.39 77.47 250.38 77.21 250.36 76.95C250.38 76.47 250.39 75.99 250.39 75.5ZM213.39 91C204.55 91 197.39 83.84 197.39 75C197.39 66.16 204.55 59 213.39 59C222.23 59 229.39 66.16 229.39 75C229.39 83.84 222.23 91 213.39 91Z" fill="#FFC600"/>
<path d="M307.16 86.81C304.24 89.99 300.05 92 295.39 92C286.55 92 279.39 84.84 279.39 76C279.39 67.16 286.55 60 295.39 60C300.36 60 304.8 62.27 307.74 65.82L322.27 51.29C315.62 44.34 306.27 40 295.89 40C275.73 40 259.39 56.34 259.39 76.5C259.39 96.66 275.73 113 295.89 113C306.21 113 315.53 108.71 322.17 101.82L307.16 86.81Z" fill="#00B4E7"/>
<path d="M440.39 3V21H433.39V116C433.38 117.4 433.19 122.43 429.39 127C425.42 131.76 420.23 132.78 418.89 133H404.39V115H411.39V20C411.4 18.6 411.59 13.57 415.39 9C419.36 4.24 424.55 3.22 425.89 3H440.39Z" fill="#F60069"/>
<path d="M433.39 40H411.39V61H433.39V40Z" fill="#783A46"/>
<path d="M411.39 40H401.39V61H411.39V40Z" fill="#00BC70"/>
<path d="M443.39 40H433.39V61H443.39V40Z" fill="#00BC70"/>
<path d="M60.77 89.9201C60.36 99.4201 53.36 108.35 43.77 109.92C30.94 112.02 14.77 110.92 1.77 110.92V92.7101H38.26C40.19 92.3701 41.63 90.7801 41.77 88.9201C41.91 86.8601 40.41 84.9301 38.26 84.5401C31.62 84.5401 24.94 84.8401 18.34 84.2101H16.03C4.03 83.2101 -0.409999 71.4001 0.0300013 61.2101C0.440001 51.7101 7.44 42.7801 17.03 41.2101C29.86 39.1101 42.03 40.2101 55.03 40.2101V58.4201H22.53C20.6 58.7601 19.16 60.3501 19.03 62.2101C18.88 64.2701 20.38 66.2001 22.53 66.5901C29.17 66.5901 35.86 66.2901 42.46 66.9201H44.77C56.77 67.9201 61.2 79.7301 60.77 89.9201Z" fill="#00BC70"/>
</g>
<defs>
<clipPath id="clip0_2326_119337">
<rect width="472.39" height="133" fill="white"/>
</clipPath>
</defs>
</svg>
